<svg width="92" height="38" viewBox="0 0 92 38" fill="none" xmlns="http://www.w3.org/2000/svg">
<path d="M3.806 20.502L4.18 18.016H11.572L11.946 20.502H3.806ZM7.832 13.594L5.522 18.896L5.588 19.6L3.564 24H0.022L7.832 7.698L15.642 24H12.078L10.098 19.732L10.142 18.94L7.832 13.594ZM19.8426 6.84V24H16.9826V6.84H19.8426ZM28.1586 18.94C28.1586 20.0547 27.9313 21.008 27.4766 21.8C27.022 22.592 26.4206 23.1933 25.6726 23.604C24.9393 24.0147 24.1473 24.22 23.2966 24.22C22.4606 24.22 21.7126 24.0073 21.0526 23.582C20.4073 23.1567 19.894 22.548 19.5126 21.756C19.1313 20.964 18.9406 20.0253 18.9406 18.94C18.9406 17.84 19.1313 16.9013 19.5126 16.124C19.894 15.332 20.4073 14.7233 21.0526 14.298C21.7126 13.8727 22.4606 13.66 23.2966 13.66C24.1473 13.66 24.9393 13.8653 25.6726 14.276C26.4206 14.6867 27.022 15.288 27.4766 16.08C27.9313 16.8573 28.1586 17.8107 28.1586 18.94ZM25.2106 18.94C25.2106 18.3387 25.086 17.818 24.8366 17.378C24.5873 16.938 24.25 16.6007 23.8246 16.366C23.414 16.1313 22.9593 16.014 22.4606 16.014C22.0353 16.014 21.6173 16.1313 21.2066 16.366C20.8106 16.586 20.4806 16.916 20.2166 17.356C19.9673 17.796 19.8426 18.324 19.8426 18.94C19.8426 19.556 19.9673 20.084 20.2166 20.524C20.4806 20.964 20.8106 21.3013 21.2066 21.536C21.6173 21.756 22.0353 21.866 22.4606 21.866C22.9593 21.866 23.414 21.7487 23.8246 21.514C24.25 21.2793 24.5873 20.942 24.8366 20.502C25.086 20.062 25.2106 19.5413 25.2106 18.94ZM29.601 18.94C29.601 17.884 29.843 16.96 30.327 16.168C30.8257 15.376 31.493 14.76 32.329 14.32C33.1797 13.88 34.1403 13.66 35.211 13.66C36.2817 13.66 37.235 13.88 38.071 14.32C38.9217 14.76 39.589 15.376 40.073 16.168C40.5717 16.96 40.821 17.884 40.821 18.94C40.821 19.9813 40.5717 20.9053 40.073 21.712C39.589 22.504 38.9217 23.12 38.071 23.56C37.235 24 36.2817 24.22 35.211 24.22C34.1403 24.22 33.1797 24 32.329 23.56C31.493 23.12 30.8257 22.504 30.327 21.712C29.843 20.9053 29.601 19.9813 29.601 18.94ZM32.505 18.94C32.505 19.512 32.6223 20.018 32.857 20.458C33.1063 20.8833 33.4363 21.2207 33.847 21.47C34.2577 21.7047 34.7123 21.822 35.211 21.822C35.7097 21.822 36.1643 21.7047 36.575 21.47C36.9857 21.2207 37.3083 20.8833 37.543 20.458C37.7923 20.018 37.917 19.512 37.917 18.94C37.917 18.368 37.7923 17.862 37.543 17.422C37.3083 16.982 36.9857 16.6447 36.575 16.41C36.1643 16.1753 35.7097 16.058 35.211 16.058C34.7123 16.058 34.2577 16.1753 33.847 16.41C33.4363 16.6447 33.1063 16.982 32.857 17.422C32.6223 17.862 32.505 18.368 32.505 18.94ZM45.9068 20.04C45.9068 20.7 46.0388 21.2133 46.3028 21.58C46.5668 21.932 46.9921 22.108 47.5788 22.108C47.9894 22.108 48.3414 22.0273 48.6348 21.866C48.9428 21.69 49.1774 21.448 49.3388 21.14C49.5148 20.832 49.6028 20.4653 49.6028 20.04V13.88H52.4408V24H49.6028V22.46C49.2801 23.032 48.8694 23.472 48.3708 23.78C47.8721 24.0733 47.2634 24.22 46.5448 24.22C45.3421 24.22 44.4401 23.8753 43.8388 23.186C43.2521 22.4967 42.9588 21.5507 42.9588 20.348V13.88H45.9068V20.04ZM53.9498 13.88H60.1978V16.278H53.9498V13.88ZM55.6878 10.36H58.4378V24H55.6878V10.36ZM68.4643 8.6H71.6103V18.742C71.6103 19.622 71.8377 20.3333 72.2923 20.876C72.7617 21.404 73.451 21.668 74.3603 21.668C75.2697 21.668 75.9517 21.404 76.4063 20.876C76.8757 20.3333 77.1103 19.622 77.1103 18.742V8.6H80.2563V18.94C80.2563 19.8493 80.1097 20.6487 79.8163 21.338C79.523 22.0273 79.105 22.6067 78.5623 23.076C78.0343 23.5453 77.411 23.8973 76.6923 24.132C75.9737 24.3813 75.1963 24.506 74.3603 24.506C73.5097 24.506 72.725 24.3813 72.0063 24.132C71.2877 23.8973 70.6643 23.5453 70.1363 23.076C69.6083 22.6067 69.1977 22.0273 68.9043 21.338C68.611 20.6487 68.4643 19.8493 68.4643 18.94V8.6ZM83.705 20.502C84.1303 20.898 84.5263 21.2207 84.893 21.47C85.2597 21.7047 85.6043 21.8807 85.927 21.998C86.2643 22.1153 86.5797 22.174 86.873 22.174C87.2543 22.174 87.5477 22.0933 87.753 21.932C87.9583 21.756 88.061 21.5213 88.061 21.228C88.061 20.964 87.973 20.744 87.797 20.568C87.6357 20.3773 87.3937 20.2087 87.071 20.062C86.7483 19.9153 86.3377 19.7613 85.839 19.6C85.3697 19.424 84.915 19.2187 84.475 18.984C84.035 18.7347 83.6683 18.412 83.375 18.016C83.0963 17.6053 82.957 17.0847 82.957 16.454C82.957 15.8527 83.1183 15.3467 83.441 14.936C83.7637 14.5107 84.1963 14.1953 84.739 13.99C85.2963 13.77 85.9123 13.66 86.587 13.66C87.159 13.66 87.6943 13.7333 88.193 13.88C88.6917 14.0267 89.1537 14.2247 89.579 14.474C90.0043 14.7087 90.3783 14.9873 90.701 15.31L89.447 17.07C89.0803 16.674 88.6403 16.3513 88.127 16.102C87.6283 15.8527 87.137 15.728 86.653 15.728C86.3303 15.728 86.0737 15.794 85.883 15.926C85.707 16.0433 85.619 16.2267 85.619 16.476C85.619 16.696 85.707 16.894 85.883 17.07C86.0737 17.2313 86.3377 17.378 86.675 17.51C87.027 17.642 87.423 17.8033 87.863 17.994C88.4057 18.1993 88.9043 18.434 89.359 18.698C89.8283 18.9473 90.2023 19.2627 90.481 19.644C90.7597 20.0253 90.899 20.524 90.899 21.14C90.899 22.152 90.569 22.944 89.909 23.516C89.249 24.0733 88.3397 24.352 87.181 24.352C86.4623 24.352 85.8023 24.2567 85.201 24.066C84.6143 23.8753 84.079 23.626 83.595 23.318C83.1257 22.9953 82.7003 22.6507 82.319 22.284L83.705 20.502Z" fill="url(#paint0_linear_27_4017)"/>
<rect y="34" width="76" height="4" rx="2" fill="#FDBC6D"/>
<rect x="80" y="34" width="12" height="4" rx="2" fill="#FDBC6D"/>
<defs>
<linearGradient id="paint0_linear_27_4017" x1="0" y1="16" x2="92" y2="16" gradientUnits="userSpaceOnUse">
<stop stop-color="#FFBF6F"/>
<stop offset="0.5" stop-color="#FDCD7F"/>
<stop offset="0.75" stop-color="#FDBC6D"/>
<stop offset="1" stop-color="#FFD188"/>
</linearGradient>
</defs>
</svg>
