<svg width="25" height="37" viewBox="0 0 25 37" fill="none" xmlns="http://www.w3.org/2000/svg">
<path d="M0.922197 12.3158C0.412901 12.3158 -0.00361633 12.7293 0.035038 13.2372C0.254316 16.118 1.49647 18.8379 3.55367 20.8951C5.82903 23.1704 8.91508 24.4487 12.1329 24.4487C15.3508 24.4487 18.4368 23.1704 20.7122 20.8951C22.7694 18.8379 24.0115 16.118 24.2308 13.2372C24.2695 12.7293 23.8529 12.3158 23.3436 12.3158C22.8343 12.3158 22.4258 12.7296 22.3802 13.2369C22.1654 15.6279 21.1192 17.8798 19.408 19.591C17.4786 21.5204 14.8616 22.6044 12.1329 22.6044C9.40422 22.6044 6.78729 21.5204 4.85781 19.591C3.14662 17.8798 2.10045 15.6279 1.88564 13.2369C1.84007 12.7296 1.43149 12.3158 0.922197 12.3158Z" fill="#CC3F41"/>
<rect x="23.4291" y="34.3821" width="1.79065" height="9.7231" rx="0.895323" transform="rotate(155 23.4291 34.3821)" fill="#CC3F41"/>
<rect x="12.7139" y="37" width="1.79065" height="9.7231" rx="0.895323" transform="rotate(-180 12.7139 37)" fill="#CC3F41"/>
<rect x="2.02203" y="35.4529" width="1.79212" height="9.7231" rx="0.89606" transform="rotate(-155 2.02203 35.4529)" fill="#CC3F41"/>
</svg>
