<svg width="54" height="53" viewBox="0 0 54 53" fill="none" xmlns="http://www.w3.org/2000/svg">
<path d="M48.5009 14.4434C46.1039 14.8113 43.0672 15.7076 39.9496 16.9673C36.832 18.2269 34.035 19.6876 32.0733 21.0808C32.0291 21.1122 31.9932 21.1505 31.9514 21.1837C31.9856 21.143 32.0231 21.1062 32.0552 21.0633C33.4837 19.1495 34.981 16.4213 36.2724 13.3804C37.5637 10.3395 38.4826 7.3775 38.8597 5.03898C39.0685 3.74774 38.3458 2.49524 37.1009 1.9921C35.8576 1.48978 34.4387 1.87718 33.6508 2.93428C32.2222 4.84809 30.7249 7.57627 29.4336 10.6172C28.1423 13.6581 27.2234 16.6201 26.8462 18.9586C26.8369 19.0171 26.8392 19.0744 26.8336 19.1327C26.8279 19.0745 26.8302 19.017 26.8209 18.9584C26.4437 16.6203 25.5248 13.6582 24.2335 10.6171C22.9421 7.57606 21.4447 4.84768 20.0164 2.93418C19.2273 1.87728 17.8088 1.48978 16.5637 1.99282C15.3211 2.49484 14.5991 3.74733 14.8072 5.03898C15.1843 7.37709 16.1033 10.3392 17.3946 13.3803C18.686 16.4213 20.1834 19.1497 21.6117 21.0632C21.6474 21.111 21.6908 21.1502 21.7289 21.1952C21.6828 21.158 21.6428 21.1157 21.5937 21.0809C19.6318 19.6874 16.8349 18.2268 13.7174 16.9672C10.6 15.7076 7.56346 14.8113 5.16607 14.4434C3.84358 14.2403 2.55894 14.944 2.0425 16.159C1.52785 17.371 1.9249 18.7553 3.0084 19.5244C4.97037 20.9179 7.76722 22.3784 10.8847 23.6381C14.0021 24.8976 17.0387 25.794 19.4361 26.1619C19.4898 26.1703 19.5432 26.1703 19.5967 26.1755C19.543 26.1808 19.4898 26.1785 19.4358 26.1866C17.0389 26.5545 14.0022 27.4509 10.8846 28.7105C7.76701 29.9702 4.96995 31.4308 3.00829 32.824C1.92479 33.5938 1.52753 34.9775 2.04323 36.1919C2.55789 37.404 3.84191 38.1083 5.16607 37.9053C7.56304 37.5375 10.5997 36.6411 13.7173 35.3814C16.8349 34.1218 19.632 32.6611 21.5936 31.268C21.6425 31.2332 21.6823 31.1913 21.7284 31.1542C21.6905 31.199 21.6473 31.2379 21.6119 31.2854C20.1833 33.1992 18.686 35.9274 17.3946 38.9684C16.1034 42.0092 15.1844 44.9712 14.8073 47.3098C14.5985 48.601 15.3212 49.8535 16.5661 50.3566C17.3005 50.6533 18.0961 50.6395 18.7874 50.3602C19.2658 50.167 19.6937 49.8466 20.0162 49.4144C21.4448 47.5006 22.9421 44.7725 24.2335 41.7315C25.5247 38.6907 26.4436 35.7287 26.8208 33.3901C26.8301 33.3317 26.8278 33.2743 26.8335 33.216C26.8391 33.2742 26.8368 33.3318 26.8461 33.3903C27.2233 35.7285 28.1422 38.6906 29.4336 41.7316C30.7249 44.7727 32.2223 47.5011 33.6506 49.4146C34.4398 50.4714 35.8583 50.859 37.1033 50.3559C38.3459 49.8539 39.0679 48.6014 38.8598 47.3098C38.4827 44.9716 37.5638 42.0095 36.2724 38.9685C34.981 35.9274 33.4836 33.199 32.0554 31.2855C32.0196 31.2377 31.9762 31.1985 31.9381 31.1535C31.9842 31.1908 32.0242 31.233 32.0733 31.2679C34.0353 32.6613 36.8321 34.1219 39.9496 35.3815C43.067 36.6411 46.1036 37.5375 48.501 37.9053C49.042 37.9887 49.5767 37.92 50.0551 37.7267C50.7463 37.4475 51.3196 36.9076 51.6245 36.1897C52.1392 34.9777 51.7421 33.5934 50.6586 32.8243C48.6967 31.4308 45.8998 29.9703 42.7823 28.7106C39.6649 27.4511 36.6284 26.5547 34.231 26.1868C34.1709 26.1777 34.112 26.1799 34.0522 26.1745C34.1119 26.1689 34.1711 26.1712 34.2312 26.1621C36.6282 25.7942 39.6648 24.8978 42.7824 23.6382C45.9 22.3786 48.6971 20.9179 50.6587 19.5247C51.7422 18.7549 52.1395 17.3712 51.6238 16.1568C51.1088 14.9447 49.8249 14.2403 48.5009 14.4434Z" fill="#FFE5E5"/>
<path d="M41.0117 19.4686L28.5429 24.5066L33.7077 12.3438C33.9033 11.8832 33.6793 11.3555 33.207 11.1647C32.7348 10.9739 32.1939 11.1924 31.9983 11.6531L26.8334 23.816L21.6687 11.6533C21.4731 11.1928 20.9318 10.9741 20.4597 11.1648C19.9876 11.3556 19.7634 11.8836 19.9589 12.344L25.1236 24.5066L12.6546 19.4686C12.1824 19.2779 11.6414 19.4964 11.4458 19.9571C11.2502 20.4178 11.4742 20.9454 11.9465 21.1361L24.4156 26.1743L11.9468 31.2122C11.4747 31.403 11.2505 31.931 11.446 32.3915C11.6416 32.852 12.1829 33.0707 12.6549 32.88L25.1237 27.8421L19.9589 40.005C19.7633 40.4656 19.9873 40.9933 20.4596 41.1841C20.6958 41.2796 20.9491 41.2725 21.1678 41.1842C21.3864 41.0958 21.5706 40.926 21.6685 40.6956L26.8334 28.5327L31.9981 40.6953C32.1936 41.1558 32.7349 41.3745 33.207 41.1839C33.6791 40.9931 33.9033 40.4651 33.7078 40.0046L28.5432 27.8419L41.0122 32.8799C41.2483 32.9754 41.5017 32.9683 41.7203 32.88C41.939 32.7917 42.1231 32.6218 42.221 32.3915C42.4166 31.9309 42.1926 31.4032 41.7203 31.2124L29.2511 26.1743L41.7199 21.1365C42.192 20.9457 42.4162 20.4177 42.2207 19.9572C42.0252 19.4967 41.4839 19.278 41.0117 19.4686Z" fill="#E6D7EE"/>
<path d="M51.4538 23.4244C49.0949 22.8696 45.9377 22.5641 42.5632 22.5641C39.1887 22.5641 36.0315 22.8696 33.6727 23.4244C33.6195 23.4369 33.5713 23.459 33.5196 23.4741C33.5671 23.4492 33.6161 23.4293 33.6627 23.4014C35.7333 22.1666 38.1871 20.205 40.573 17.8776C42.959 15.5502 44.97 13.1567 46.2359 11.1369C46.9354 10.022 46.7591 8.59495 45.8063 7.66544C44.8547 6.73727 43.3919 6.5654 42.2493 7.24808C40.1787 8.48289 37.7249 10.4445 35.339 12.7719C32.953 15.0993 30.942 17.4928 29.6761 19.5126C29.6445 19.563 29.624 19.617 29.596 19.6686C29.6136 19.6127 29.6384 19.5604 29.6526 19.5029C30.2215 17.2021 30.5346 14.1225 30.5346 10.8307C30.5346 7.53897 30.2215 4.45938 29.6526 2.15848C29.3381 0.887581 28.1797 0 26.832 0C25.4869 0 24.3285 0.887581 24.0142 2.15858C23.4453 4.45948 23.1322 7.53917 23.1322 10.8308C23.1322 14.1225 23.4453 17.2022 24.0142 19.5031C24.0284 19.5606 24.0531 19.613 24.0708 19.6688C24.0427 19.6172 24.0223 19.5632 23.9907 19.5128C22.7248 17.493 20.7138 15.0995 18.3278 12.7721C15.9418 10.4447 13.488 8.48309 11.4175 7.24829C10.2753 6.56693 8.81244 6.73758 7.8586 7.66739C6.90749 8.59515 6.73139 10.0221 7.43074 11.137C8.69662 13.1568 10.7077 15.5503 13.0936 17.8777C15.4796 20.2051 17.9334 22.1667 20.0039 23.4015C20.0505 23.4292 20.0996 23.4493 20.147 23.4742C20.0952 23.459 20.0471 23.437 19.994 23.4245C17.6352 22.8696 14.4779 22.5641 11.1034 22.5641C7.72894 22.5641 4.57173 22.8696 2.21291 23.4244C0.909923 23.7313 0 24.8612 0 26.1758C0 27.4878 0.909923 28.6178 2.21291 28.9244C4.57173 29.4793 7.72894 29.7847 11.1034 29.7847C14.4779 29.7847 17.6352 29.4793 19.994 28.9244C20.0528 28.9105 20.106 28.8866 20.163 28.8695C20.1103 28.8968 20.0553 28.9166 20.0039 28.9473C17.9334 30.1822 15.4796 32.1438 13.0936 34.4712C10.7077 36.7986 8.69662 39.1921 7.43074 41.2118C6.73129 42.3268 6.90759 43.7538 7.86038 44.6833C8.42242 45.2316 9.16295 45.5158 9.91104 45.5158C10.4288 45.5158 10.9497 45.3796 11.4173 45.1006C13.4878 43.8658 15.9416 41.9041 18.3276 39.5767C20.7136 37.2494 22.7246 34.8558 23.9905 32.8361C24.022 32.7857 24.0426 32.7317 24.0705 32.6801C24.0529 32.736 24.0282 32.7882 24.0139 32.8458C23.4452 35.1467 23.1321 38.2264 23.1321 41.5181C23.1321 44.8097 23.4452 47.8894 24.0141 50.1903C24.3285 51.4613 25.4868 52.3489 26.8347 52.3489C28.1797 52.3489 29.3382 51.4613 29.6525 50.1903C30.2214 47.8894 30.5344 44.8097 30.5344 41.5181C30.5344 38.2264 30.2214 35.1467 29.6525 32.8458C29.6383 32.7882 29.6135 32.7359 29.5959 32.6801C29.624 32.7317 29.6443 32.7857 29.676 32.8361C30.9419 34.8558 32.9529 37.2494 35.3389 39.5767C37.7248 41.9041 40.1786 43.8658 42.2492 45.1006C42.7164 45.3796 43.2373 45.5158 43.7551 45.5158C44.5033 45.5158 45.2447 45.2312 45.8081 44.6815C46.7592 43.7537 46.9353 42.3268 46.2359 41.2118C44.97 39.1921 42.959 36.7986 40.573 34.4712C38.1871 32.1438 35.7333 30.1822 33.6627 28.9473C33.611 28.9166 33.5555 28.8964 33.5025 28.8691C33.5599 28.8864 33.6136 28.9105 33.6727 28.9244C36.0315 29.4793 39.1887 29.7847 42.5632 29.7847C45.9377 29.7847 49.0949 29.4793 51.4538 28.9244C52.7567 28.6177 53.6667 27.4878 53.6667 26.1731C53.6667 24.8612 52.7567 23.7313 51.4538 23.4244Z" fill="#FFDADB"/>
<path d="M42.5633 25.2718H29.067L38.6105 15.9626C38.9719 15.6101 38.9719 15.0389 38.6105 14.6863C38.2491 14.3338 37.6634 14.3338 37.302 14.6863L27.7587 23.9955V10.8307C27.7587 10.3323 27.3443 9.9281 26.8334 9.9281C26.3224 9.9281 25.908 10.3323 25.908 10.8307V23.9955L16.3646 14.6863C16.0032 14.3338 15.4176 14.3338 15.0561 14.6863C14.6947 15.0389 14.6947 15.6101 15.0561 15.9626L24.5996 25.2718H11.1035C10.5925 25.2718 10.1781 25.6759 10.1781 26.1744C10.1781 26.6728 10.5925 27.077 11.1035 27.077H24.5996L15.0561 36.3861C14.6947 36.7386 14.6947 37.3099 15.0561 37.6624C15.237 37.8388 15.4735 37.9268 15.7103 37.9268C15.9471 37.9268 16.1839 37.8387 16.3645 37.6624L25.908 28.3532V41.518C25.908 42.0165 26.3224 42.4207 26.8334 42.4207C27.3443 42.4207 27.7587 42.0165 27.7587 41.518V28.3532L37.3021 37.6623C37.4829 37.8387 37.7195 37.9267 37.9563 37.9267C38.1931 37.9267 38.4298 37.8386 38.6105 37.6623C38.9719 37.3098 38.9719 36.7385 38.6105 36.386L29.067 27.077H42.5633C43.0742 27.077 43.4886 26.6728 43.4886 26.1744C43.4886 25.6759 43.0742 25.2718 42.5633 25.2718Z" fill="#FCD4D4"/>
<path d="M51.4538 23.4244C49.0949 22.8696 45.9377 22.5641 42.5632 22.5641C39.1887 22.5641 36.0315 22.8696 33.6727 23.4244C33.6195 23.4369 33.5713 23.459 33.5196 23.4741C33.5671 23.4492 33.6161 23.4293 33.6627 23.4014C35.7333 22.1666 38.1871 20.205 40.573 17.8776C42.959 15.5502 44.97 13.1567 46.2359 11.1369C46.9354 10.022 46.7591 8.59495 45.8063 7.66544C44.8547 6.73727 43.3919 6.5654 42.2493 7.24808C40.1787 8.48289 37.7249 10.4445 35.339 12.7719C32.953 15.0993 30.942 17.4928 29.6761 19.5126C29.6445 19.563 29.624 19.617 29.596 19.6686C29.6136 19.6127 29.6384 19.5604 29.6526 19.5029C30.2215 17.2021 30.5346 14.1225 30.5346 10.8307C30.5346 7.53897 30.2215 4.45938 29.6526 2.15848C29.3381 0.887581 28.1797 0 26.832 0C25.4869 0 24.3285 0.887581 24.0142 2.15858C23.4453 4.45948 23.1322 7.53917 23.1322 10.8308C23.1322 14.1225 23.4453 17.2022 24.0142 19.5031C24.0284 19.5606 24.0531 19.613 24.0708 19.6688C24.0427 19.6172 24.0223 19.5632 23.9907 19.5128C22.7248 17.493 20.7138 15.0995 18.3278 12.7721C15.9418 10.4447 13.488 8.48309 11.4175 7.24829C10.2753 6.56693 8.81244 6.73758 7.8586 7.66739C6.90749 8.59515 6.73139 10.0221 7.43074 11.137C8.69662 13.1568 10.7077 15.5503 13.0936 17.8777C15.4796 20.2051 17.9334 22.1667 20.0039 23.4015C20.0505 23.4292 20.0996 23.4493 20.147 23.4742C20.0952 23.459 20.0471 23.437 19.994 23.4245C17.6352 22.8696 14.4779 22.5641 11.1034 22.5641C7.72894 22.5641 4.57173 22.8696 2.21291 23.4244C0.909923 23.7313 0 24.8612 0 26.1758C0 27.4878 0.909923 28.6178 2.21291 28.9244C4.57173 29.4793 7.72894 29.7847 11.1034 29.7847C14.4779 29.7847 17.6352 29.4793 19.994 28.9244C20.0528 28.9105 20.106 28.8866 20.163 28.8695C20.1103 28.8968 20.0553 28.9166 20.0039 28.9473C17.9334 30.1822 15.4796 32.1438 13.0936 34.4712C10.7077 36.7986 8.69662 39.1921 7.43074 41.2118C6.73129 42.3268 6.90759 43.7538 7.86038 44.6833C8.42242 45.2316 9.16295 45.5158 9.91104 45.5158C10.4288 45.5158 10.9497 45.3796 11.4173 45.1006C13.4878 43.8658 15.9416 41.9041 18.3276 39.5767C20.7136 37.2494 22.7246 34.8558 23.9905 32.8361C24.022 32.7857 24.0426 32.7317 24.0705 32.6801C24.0529 32.736 24.0282 32.7882 24.0139 32.8458C23.4452 35.1467 23.1321 38.2264 23.1321 41.5181C23.1321 44.8097 23.4452 47.8894 24.0141 50.1903C24.3285 51.4613 25.4868 52.3489 26.8347 52.3489C28.1797 52.3489 29.3382 51.4613 29.6525 50.1903C30.2214 47.8894 30.5344 44.8097 30.5344 41.5181C30.5344 38.2264 30.2214 35.1467 29.6525 32.8458C29.6383 32.7882 29.6135 32.7359 29.5959 32.6801C29.624 32.7317 29.6443 32.7857 29.676 32.8361C30.9419 34.8558 32.9529 37.2494 35.3389 39.5767C37.7248 41.9041 40.1786 43.8658 42.2492 45.1006C42.7164 45.3796 43.2373 45.5158 43.7551 45.5158C44.5033 45.5158 45.2447 45.2312 45.8081 44.6815C46.7592 43.7537 46.9353 42.3268 46.2359 41.2118C44.97 39.1921 42.959 36.7986 40.573 34.4712C38.1871 32.1438 35.7333 30.1822 33.6627 28.9473C33.611 28.9166 33.5555 28.8964 33.5025 28.8691C33.5599 28.8864 33.6136 28.9105 33.6727 28.9244C36.0315 29.4793 39.1887 29.7847 42.5632 29.7847C45.9377 29.7847 49.0949 29.4793 51.4538 28.9244C52.7567 28.6177 53.6667 27.4878 53.6667 26.1731C53.6667 24.8612 52.7567 23.7313 51.4538 23.4244Z" fill="#FFDADB"/>
<path d="M42.5633 25.2718H29.067L38.6105 15.9626C38.9719 15.6101 38.9719 15.0389 38.6105 14.6863C38.2491 14.3338 37.6634 14.3338 37.302 14.6863L27.7587 23.9955V10.8307C27.7587 10.3323 27.3443 9.9281 26.8334 9.9281C26.3224 9.9281 25.908 10.3323 25.908 10.8307V23.9955L16.3646 14.6863C16.0032 14.3338 15.4176 14.3338 15.0561 14.6863C14.6947 15.0389 14.6947 15.6101 15.0561 15.9626L24.5996 25.2718H11.1035C10.5925 25.2718 10.1781 25.6759 10.1781 26.1744C10.1781 26.6728 10.5925 27.077 11.1035 27.077H24.5996L15.0561 36.3861C14.6947 36.7386 14.6947 37.3099 15.0561 37.6624C15.237 37.8388 15.4735 37.9268 15.7103 37.9268C15.9471 37.9268 16.1839 37.8387 16.3645 37.6624L25.908 28.3532V41.518C25.908 42.0165 26.3224 42.4207 26.8334 42.4207C27.3443 42.4207 27.7587 42.0165 27.7587 41.518V28.3532L37.3021 37.6623C37.4829 37.8387 37.7195 37.9267 37.9563 37.9267C38.1931 37.9267 38.4298 37.8386 38.6105 37.6623C38.9719 37.3098 38.9719 36.7385 38.6105 36.386L29.067 27.077H42.5633C43.0742 27.077 43.4886 26.6728 43.4886 26.1744C43.4886 25.6759 43.0742 25.2718 42.5633 25.2718Z" fill="#FCD4D4"/>
<path d="M26.8333 33.395C30.9215 33.395 34.2357 30.1623 34.2357 26.1744C34.2357 22.1866 30.9215 18.9539 26.8333 18.9539C22.7451 18.9539 19.431 22.1866 19.431 26.1744C19.431 30.1623 22.7451 33.395 26.8333 33.395Z" fill="#FF272A"/>
<path d="M26.8334 30.6873C29.3885 30.6873 31.4598 28.6668 31.4598 26.1745C31.4598 23.6821 29.3885 21.6616 26.8334 21.6616C24.2783 21.6616 22.2069 23.6821 22.2069 26.1745C22.2069 28.6668 24.2783 30.6873 26.8334 30.6873Z" fill="#CC3F41"/>
</svg>
