<svg width="94" height="38" viewBox="0 0 94 38" fill="none" xmlns="http://www.w3.org/2000/svg">
<path d="M5.42 16.828H8.742L13.758 24H10.04L5.42 16.828ZM1.922 8.6H5.068V24H1.922V8.6ZM3.836 11.284V8.6H7.092C8.30933 8.6 9.34333 8.80533 10.194 9.216C11.0447 9.62667 11.6973 10.1987 12.152 10.932C12.6067 11.6653 12.834 12.5233 12.834 13.506C12.834 14.474 12.6067 15.332 12.152 16.08C11.6973 16.8133 11.0447 17.3853 10.194 17.796C9.34333 18.2067 8.30933 18.412 7.092 18.412H3.836V15.904H6.894C7.45133 15.904 7.928 15.816 8.324 15.64C8.73467 15.4493 9.05 15.1853 9.27 14.848C9.49 14.496 9.6 14.078 9.6 13.594C9.6 13.11 9.49 12.6993 9.27 12.362C9.05 12.01 8.73467 11.746 8.324 11.57C7.928 11.3793 7.45133 11.284 6.894 11.284H3.836ZM14.6186 18.94C14.6186 17.884 14.8606 16.96 15.3446 16.168C15.8432 15.376 16.5106 14.76 17.3466 14.32C18.1972 13.88 19.1579 13.66 20.2286 13.66C21.2992 13.66 22.2526 13.88 23.0886 14.32C23.9392 14.76 24.6066 15.376 25.0906 16.168C25.5892 16.96 25.8386 17.884 25.8386 18.94C25.8386 19.9813 25.5892 20.9053 25.0906 21.712C24.6066 22.504 23.9392 23.12 23.0886 23.56C22.2526 24 21.2992 24.22 20.2286 24.22C19.1579 24.22 18.1972 24 17.3466 23.56C16.5106 23.12 15.8432 22.504 15.3446 21.712C14.8606 20.9053 14.6186 19.9813 14.6186 18.94ZM17.5226 18.94C17.5226 19.512 17.6399 20.018 17.8746 20.458C18.1239 20.8833 18.4539 21.2207 18.8646 21.47C19.2752 21.7047 19.7299 21.822 20.2286 21.822C20.7272 21.822 21.1819 21.7047 21.5926 21.47C22.0032 21.2207 22.3259 20.8833 22.5606 20.458C22.8099 20.018 22.9346 19.512 22.9346 18.94C22.9346 18.368 22.8099 17.862 22.5606 17.422C22.3259 16.982 22.0032 16.6447 21.5926 16.41C21.1819 16.1753 20.7272 16.058 20.2286 16.058C19.7299 16.058 19.2752 16.1753 18.8646 16.41C18.4539 16.6447 18.1239 16.982 17.8746 17.422C17.6399 17.862 17.5226 18.368 17.5226 18.94ZM30.0004 20.854C30.0004 21.1473 30.0737 21.404 30.2204 21.624C30.367 21.8293 30.565 21.9907 30.8144 22.108C31.0784 22.2107 31.3644 22.262 31.6724 22.262C32.1124 22.262 32.5084 22.174 32.8604 21.998C33.2124 21.8073 33.4984 21.5433 33.7184 21.206C33.9384 20.854 34.0484 20.436 34.0484 19.952L34.4004 21.272C34.4004 21.9173 34.217 22.46 33.8504 22.9C33.4984 23.34 33.0364 23.67 32.4644 23.89C31.907 24.11 31.3204 24.22 30.7044 24.22C30.0737 24.22 29.487 24.0953 28.9444 23.846C28.4017 23.5967 27.9617 23.2373 27.6244 22.768C27.3017 22.284 27.1404 21.6973 27.1404 21.008C27.1404 20.0253 27.485 19.248 28.1744 18.676C28.8637 18.104 29.839 17.818 31.1004 17.818C31.7457 17.818 32.3104 17.884 32.7944 18.016C33.293 18.148 33.711 18.3093 34.0484 18.5C34.3857 18.6907 34.6277 18.874 34.7744 19.05V20.37C34.3784 20.0767 33.931 19.8567 33.4324 19.71C32.9484 19.5633 32.435 19.49 31.8924 19.49C31.4524 19.49 31.093 19.5487 30.8144 19.666C30.5357 19.7687 30.3304 19.9227 30.1984 20.128C30.0664 20.3187 30.0004 20.5607 30.0004 20.854ZM28.9004 16.74L27.8444 14.804C28.3724 14.5253 29.0177 14.2613 29.7804 14.012C30.543 13.748 31.3937 13.616 32.3324 13.616C33.1977 13.616 33.9677 13.7407 34.6424 13.99C35.317 14.2393 35.845 14.606 36.2264 15.09C36.6077 15.5593 36.7984 16.1387 36.7984 16.828V24H34.0484V17.422C34.0484 17.1433 34.0044 16.9087 33.9164 16.718C33.8284 16.5127 33.689 16.344 33.4984 16.212C33.3224 16.08 33.1097 15.9847 32.8604 15.926C32.611 15.8673 32.3324 15.838 32.0244 15.838C31.555 15.838 31.1077 15.8893 30.6824 15.992C30.257 16.0947 29.8904 16.2193 29.5824 16.366C29.2744 16.5127 29.047 16.6373 28.9004 16.74ZM47.083 6.84H49.943V24H47.083V6.84ZM38.767 18.94C38.767 17.8107 38.9943 16.8573 39.449 16.08C39.9037 15.288 40.505 14.6867 41.253 14.276C42.001 13.8653 42.793 13.66 43.629 13.66C44.4797 13.66 45.2277 13.8727 45.873 14.298C46.533 14.7233 47.0463 15.332 47.413 16.124C47.7943 16.9013 47.985 17.84 47.985 18.94C47.985 20.0253 47.7943 20.964 47.413 21.756C47.0463 22.548 46.533 23.1567 45.873 23.582C45.2277 24.0073 44.4797 24.22 43.629 24.22C42.793 24.22 42.001 24.0147 41.253 23.604C40.505 23.1933 39.9037 22.592 39.449 21.8C38.9943 21.008 38.767 20.0547 38.767 18.94ZM41.715 18.94C41.715 19.5413 41.8397 20.062 42.089 20.502C42.3383 20.942 42.6757 21.2793 43.101 21.514C43.5263 21.7487 43.981 21.866 44.465 21.866C44.8903 21.866 45.301 21.756 45.697 21.536C46.1077 21.3013 46.4377 20.964 46.687 20.524C46.951 20.084 47.083 19.556 47.083 18.94C47.083 18.324 46.951 17.796 46.687 17.356C46.4377 16.916 46.1077 16.586 45.697 16.366C45.301 16.1313 44.8903 16.014 44.465 16.014C43.981 16.014 43.5263 16.1313 43.101 16.366C42.6757 16.6007 42.3383 16.938 42.089 17.378C41.8397 17.818 41.715 18.3387 41.715 18.94ZM67.6434 17.532V24H64.7834V17.84C64.7834 17.1507 64.6661 16.6373 64.4314 16.3C64.1967 15.948 63.8154 15.772 63.2874 15.772C62.9354 15.772 62.6274 15.8527 62.3634 16.014C62.0994 16.1607 61.8941 16.3953 61.7474 16.718C61.6007 17.026 61.5274 17.4 61.5274 17.84V24H58.6894V17.84C58.6894 17.1507 58.5721 16.6373 58.3374 16.3C58.1027 15.948 57.7214 15.772 57.1934 15.772C56.8414 15.772 56.5334 15.8527 56.2694 16.014C56.0054 16.1607 55.8001 16.3953 55.6534 16.718C55.5067 17.026 55.4334 17.4 55.4334 17.84V24H52.6834V13.88H55.4334V15.376C55.7267 14.8187 56.1154 14.3933 56.5994 14.1C57.0834 13.8067 57.6627 13.66 58.3374 13.66C59.0854 13.66 59.7014 13.8067 60.1854 14.1C60.6694 14.3933 61.0214 14.826 61.2414 15.398C61.6081 14.826 62.0554 14.3933 62.5834 14.1C63.1261 13.8067 63.7421 13.66 64.4314 13.66C65.1794 13.66 65.7881 13.814 66.2574 14.122C66.7267 14.4153 67.0714 14.8553 67.2914 15.442C67.5261 16.014 67.6434 16.7107 67.6434 17.532ZM72.475 20.854C72.475 21.1473 72.5483 21.404 72.695 21.624C72.8416 21.8293 73.0396 21.9907 73.289 22.108C73.553 22.2107 73.839 22.262 74.147 22.262C74.587 22.262 74.983 22.174 75.335 21.998C75.687 21.8073 75.973 21.5433 76.193 21.206C76.413 20.854 76.523 20.436 76.523 19.952L76.875 21.272C76.875 21.9173 76.6916 22.46 76.325 22.9C75.973 23.34 75.511 23.67 74.939 23.89C74.3816 24.11 73.795 24.22 73.179 24.22C72.5483 24.22 71.9616 24.0953 71.419 23.846C70.8763 23.5967 70.4363 23.2373 70.099 22.768C69.7763 22.284 69.615 21.6973 69.615 21.008C69.615 20.0253 69.9596 19.248 70.649 18.676C71.3383 18.104 72.3136 17.818 73.575 17.818C74.2203 17.818 74.785 17.884 75.269 18.016C75.7676 18.148 76.1856 18.3093 76.523 18.5C76.8603 18.6907 77.1023 18.874 77.249 19.05V20.37C76.853 20.0767 76.4056 19.8567 75.907 19.71C75.423 19.5633 74.9096 19.49 74.367 19.49C73.927 19.49 73.5676 19.5487 73.289 19.666C73.0103 19.7687 72.805 19.9227 72.673 20.128C72.541 20.3187 72.475 20.5607 72.475 20.854ZM71.375 16.74L70.319 14.804C70.847 14.5253 71.4923 14.2613 72.255 14.012C73.0176 13.748 73.8683 13.616 74.807 13.616C75.6723 13.616 76.4423 13.7407 77.117 13.99C77.7916 14.2393 78.3196 14.606 78.701 15.09C79.0823 15.5593 79.273 16.1387 79.273 16.828V24H76.523V17.422C76.523 17.1433 76.479 16.9087 76.391 16.718C76.303 16.5127 76.1636 16.344 75.973 16.212C75.797 16.08 75.5843 15.9847 75.335 15.926C75.0856 15.8673 74.807 15.838 74.499 15.838C74.0296 15.838 73.5823 15.8893 73.157 15.992C72.7316 16.0947 72.365 16.2193 72.057 16.366C71.749 16.5127 71.5216 16.6373 71.375 16.74ZM84.7176 28.84H81.8576V13.88H84.7176V28.84ZM93.0336 18.94C93.0336 20.084 92.8063 21.0593 92.3516 21.866C91.897 22.6727 91.2956 23.2813 90.5476 23.692C89.8143 24.1027 89.0223 24.308 88.1716 24.308C87.3063 24.308 86.551 24.088 85.9056 23.648C85.275 23.208 84.7836 22.5847 84.4316 21.778C84.0943 20.9713 83.9256 20.0253 83.9256 18.94C83.9256 17.84 84.0943 16.894 84.4316 16.102C84.7836 15.2953 85.275 14.672 85.9056 14.232C86.551 13.792 87.3063 13.572 88.1716 13.572C89.0223 13.572 89.8143 13.7773 90.5476 14.188C91.2956 14.5987 91.897 15.2073 92.3516 16.014C92.8063 16.806 93.0336 17.7813 93.0336 18.94ZM90.0856 18.94C90.0856 18.3387 89.961 17.8253 89.7116 17.4C89.4623 16.9747 89.125 16.652 88.6996 16.432C88.289 16.212 87.8343 16.102 87.3356 16.102C86.9103 16.102 86.4923 16.212 86.0816 16.432C85.6856 16.6373 85.3556 16.9527 85.0916 17.378C84.8423 17.8033 84.7176 18.324 84.7176 18.94C84.7176 19.556 84.8423 20.0767 85.0916 20.502C85.3556 20.9273 85.6856 21.25 86.0816 21.47C86.4923 21.6753 86.9103 21.778 87.3356 21.778C87.8343 21.778 88.289 21.668 88.6996 21.448C89.125 21.228 89.4623 20.9053 89.7116 20.48C89.961 20.0547 90.0856 19.5413 90.0856 18.94Z" fill="url(#paint0_linear_63_184)"/>
<rect y="34" width="77.6522" height="4" rx="2" fill="#FDBC6D"/>
<rect x="81.7391" y="34" width="12.2609" height="4" rx="2" fill="#FDBC6D"/>
<defs>
<linearGradient id="paint0_linear_63_184" x1="0" y1="16" x2="94" y2="16" gradientUnits="userSpaceOnUse">
<stop stop-color="#FFBF6F"/>
<stop offset="0.5" stop-color="#FDCD7F"/>
<stop offset="0.75" stop-color="#FDBC6D"/>
<stop offset="1" stop-color="#FFD188"/>
</linearGradient>
</defs>
</svg>
