<svg width="83" height="38" viewBox="0 0 83 38" fill="none" xmlns="http://www.w3.org/2000/svg">
<path d="M3.014 18.83C3.33667 19.402 3.68867 19.9007 4.07 20.326C4.466 20.7513 4.89867 21.0813 5.368 21.316C5.83733 21.5507 6.34333 21.668 6.886 21.668C7.51667 21.668 8.03 21.5067 8.426 21.184C8.822 20.8613 9.02 20.4213 9.02 19.864C9.02 19.38 8.89533 18.9913 8.646 18.698C8.41133 18.4047 8.052 18.148 7.568 17.928C7.09867 17.6933 6.51933 17.444 5.83 17.18C5.46333 17.048 5.038 16.872 4.554 16.652C4.08467 16.4173 3.63733 16.124 3.212 15.772C2.78667 15.4053 2.43467 14.9653 2.156 14.452C1.87733 13.924 1.738 13.2933 1.738 12.56C1.738 11.68 1.958 10.9247 2.398 10.294C2.85267 9.64867 3.46133 9.15733 4.224 8.82C5.00133 8.468 5.86667 8.292 6.82 8.292C7.80267 8.292 8.646 8.46067 9.35 8.798C10.0687 9.12067 10.6627 9.53867 11.132 10.052C11.616 10.5507 11.99 11.0713 12.254 11.614L9.79 12.978C9.58467 12.6113 9.33533 12.2813 9.042 11.988C8.76333 11.68 8.44067 11.438 8.074 11.262C7.70733 11.0713 7.28933 10.976 6.82 10.976C6.204 10.976 5.742 11.1227 5.434 11.416C5.126 11.6947 4.972 12.0247 4.972 12.406C4.972 12.7873 5.09667 13.1247 5.346 13.418C5.59533 13.6967 5.97667 13.968 6.49 14.232C7.00333 14.4813 7.64867 14.738 8.426 15.002C8.92467 15.178 9.40133 15.398 9.856 15.662C10.3253 15.926 10.7433 16.2487 11.11 16.63C11.4913 16.9967 11.7847 17.4367 11.99 17.95C12.21 18.4487 12.32 19.028 12.32 19.688C12.32 20.436 12.1733 21.1033 11.88 21.69C11.5867 22.2767 11.1833 22.7753 10.67 23.186C10.1567 23.582 9.57733 23.8827 8.932 24.088C8.30133 24.308 7.634 24.418 6.93 24.418C5.99133 24.418 5.11133 24.242 4.29 23.89C3.48333 23.5233 2.77933 23.032 2.178 22.416C1.57667 21.8 1.10733 21.1327 0.77 20.414L3.014 18.83ZM17.4809 6.84V24H14.6209V6.84H17.4809ZM21.1549 17.84C21.1549 17.1653 21.0229 16.652 20.7589 16.3C20.5096 15.948 20.0842 15.772 19.4829 15.772C19.0869 15.772 18.7349 15.86 18.4269 16.036C18.1189 16.1973 17.8842 16.432 17.7229 16.74C17.5616 17.048 17.4809 17.4147 17.4809 17.84H16.9089C16.9089 17.0333 17.0409 16.3073 17.3049 15.662C17.5836 15.0167 17.9942 14.5033 18.5369 14.122C19.0796 13.7407 19.7469 13.55 20.5389 13.55C21.3309 13.55 21.9836 13.6967 22.4969 13.99C23.0102 14.2833 23.3916 14.7233 23.6409 15.31C23.8902 15.882 24.0149 16.586 24.0149 17.422V24H21.1549V17.84ZM26.142 18.94C26.142 17.884 26.384 16.96 26.868 16.168C27.3667 15.376 28.034 14.76 28.87 14.32C29.7207 13.88 30.6813 13.66 31.752 13.66C32.8227 13.66 33.776 13.88 34.612 14.32C35.4627 14.76 36.13 15.376 36.614 16.168C37.1127 16.96 37.362 17.884 37.362 18.94C37.362 19.9813 37.1127 20.9053 36.614 21.712C36.13 22.504 35.4627 23.12 34.612 23.56C33.776 24 32.8227 24.22 31.752 24.22C30.6813 24.22 29.7207 24 28.87 23.56C28.034 23.12 27.3667 22.504 26.868 21.712C26.384 20.9053 26.142 19.9813 26.142 18.94ZM29.046 18.94C29.046 19.512 29.1633 20.018 29.398 20.458C29.6473 20.8833 29.9773 21.2207 30.388 21.47C30.7987 21.7047 31.2533 21.822 31.752 21.822C32.2507 21.822 32.7053 21.7047 33.116 21.47C33.5267 21.2207 33.8493 20.8833 34.084 20.458C34.3333 20.018 34.458 19.512 34.458 18.94C34.458 18.368 34.3333 17.862 34.084 17.422C33.8493 16.982 33.5267 16.6447 33.116 16.41C32.7053 16.1753 32.2507 16.058 31.752 16.058C31.2533 16.058 30.7987 16.1753 30.388 16.41C29.9773 16.6447 29.6473 16.982 29.398 17.422C29.1633 17.862 29.046 18.368 29.046 18.94ZM42.2938 28.84H39.4338V13.88H42.2938V28.84ZM50.6098 18.94C50.6098 20.084 50.3825 21.0593 49.9278 21.866C49.4731 22.6727 48.8718 23.2813 48.1238 23.692C47.3905 24.1027 46.5985 24.308 45.7478 24.308C44.8825 24.308 44.1271 24.088 43.4818 23.648C42.8511 23.208 42.3598 22.5847 42.0078 21.778C41.6705 20.9713 41.5018 20.0253 41.5018 18.94C41.5018 17.84 41.6705 16.894 42.0078 16.102C42.3598 15.2953 42.8511 14.672 43.4818 14.232C44.1271 13.792 44.8825 13.572 45.7478 13.572C46.5985 13.572 47.3905 13.7773 48.1238 14.188C48.8718 14.5987 49.4731 15.2073 49.9278 16.014C50.3825 16.806 50.6098 17.7813 50.6098 18.94ZM47.6618 18.94C47.6618 18.3387 47.5371 17.8253 47.2878 17.4C47.0385 16.9747 46.7011 16.652 46.2758 16.432C45.8651 16.212 45.4105 16.102 44.9118 16.102C44.4865 16.102 44.0685 16.212 43.6578 16.432C43.2618 16.6373 42.9318 16.9527 42.6678 17.378C42.4185 17.8033 42.2938 18.324 42.2938 18.94C42.2938 19.556 42.4185 20.0767 42.6678 20.502C42.9318 20.9273 43.2618 21.25 43.6578 21.47C44.0685 21.6753 44.4865 21.778 44.9118 21.778C45.4105 21.778 45.8651 21.668 46.2758 21.448C46.7011 21.228 47.0385 20.9053 47.2878 20.48C47.5371 20.0547 47.6618 19.5413 47.6618 18.94ZM59.4839 8.6H62.6299V18.742C62.6299 19.622 62.8572 20.3333 63.3119 20.876C63.7812 21.404 64.4705 21.668 65.3799 21.668C66.2892 21.668 66.9712 21.404 67.4259 20.876C67.8952 20.3333 68.1299 19.622 68.1299 18.742V8.6H71.2759V18.94C71.2759 19.8493 71.1292 20.6487 70.8359 21.338C70.5425 22.0273 70.1245 22.6067 69.5819 23.076C69.0539 23.5453 68.4305 23.8973 67.7119 24.132C66.9932 24.3813 66.2159 24.506 65.3799 24.506C64.5292 24.506 63.7445 24.3813 63.0259 24.132C62.3072 23.8973 61.6839 23.5453 61.1559 23.076C60.6279 22.6067 60.2172 22.0273 59.9239 21.338C59.6305 20.6487 59.4839 19.8493 59.4839 18.94V8.6ZM74.7245 20.502C75.1499 20.898 75.5459 21.2207 75.9125 21.47C76.2792 21.7047 76.6239 21.8807 76.9465 21.998C77.2839 22.1153 77.5992 22.174 77.8925 22.174C78.2739 22.174 78.5672 22.0933 78.7725 21.932C78.9779 21.756 79.0805 21.5213 79.0805 21.228C79.0805 20.964 78.9925 20.744 78.8165 20.568C78.6552 20.3773 78.4132 20.2087 78.0905 20.062C77.7679 19.9153 77.3572 19.7613 76.8585 19.6C76.3892 19.424 75.9345 19.2187 75.4945 18.984C75.0545 18.7347 74.6879 18.412 74.3945 18.016C74.1159 17.6053 73.9765 17.0847 73.9765 16.454C73.9765 15.8527 74.1379 15.3467 74.4605 14.936C74.7832 14.5107 75.2159 14.1953 75.7585 13.99C76.3159 13.77 76.9319 13.66 77.6065 13.66C78.1785 13.66 78.7139 13.7333 79.2125 13.88C79.7112 14.0267 80.1732 14.2247 80.5985 14.474C81.0239 14.7087 81.3979 14.9873 81.7205 15.31L80.4665 17.07C80.0999 16.674 79.6599 16.3513 79.1465 16.102C78.6479 15.8527 78.1565 15.728 77.6725 15.728C77.3499 15.728 77.0932 15.794 76.9025 15.926C76.7265 16.0433 76.6385 16.2267 76.6385 16.476C76.6385 16.696 76.7265 16.894 76.9025 17.07C77.0932 17.2313 77.3572 17.378 77.6945 17.51C78.0465 17.642 78.4425 17.8033 78.8825 17.994C79.4252 18.1993 79.9239 18.434 80.3785 18.698C80.8479 18.9473 81.2219 19.2627 81.5005 19.644C81.7792 20.0253 81.9185 20.524 81.9185 21.14C81.9185 22.152 81.5885 22.944 80.9285 23.516C80.2685 24.0733 79.3592 24.352 78.2005 24.352C77.4819 24.352 76.8219 24.2567 76.2205 24.066C75.6339 23.8753 75.0985 23.626 74.6145 23.318C74.1452 22.9953 73.7199 22.6507 73.3385 22.284L74.7245 20.502Z" fill="url(#paint0_linear_27_7688)"/>
<rect y="34" width="68.5652" height="4" rx="2" fill="#FDBC6D"/>
<rect x="72.1739" y="34" width="10.8261" height="4" rx="2" fill="#FDBC6D"/>
<defs>
<linearGradient id="paint0_linear_27_7688" x1="0" y1="16" x2="83" y2="16" gradientUnits="userSpaceOnUse">
<stop stop-color="#FFBF6F"/>
<stop offset="0.5" stop-color="#FDCD7F"/>
<stop offset="0.75" stop-color="#FDBC6D"/>
<stop offset="1" stop-color="#FFD188"/>
</linearGradient>
</defs>
</svg>
