<svg width="29" height="44" viewBox="0 0 29 44" fill="none" xmlns="http://www.w3.org/2000/svg">
<path d="M27.8979 29.5C28.5066 29.5 29.0044 29.0058 28.9582 28.3989C28.6961 24.9561 27.2116 21.7055 24.753 19.247C22.0338 16.5277 18.3456 15 14.5 15C10.6544 15 6.96623 16.5277 4.24695 19.247C1.78839 21.7055 0.303892 24.9561 0.0418329 28.3989C-0.00436233 29.0058 0.493416 29.5 1.10208 29.5C1.71074 29.5 2.19902 29.0055 2.25348 28.3993C2.51021 25.5418 3.76049 22.8506 5.80552 20.8055C8.11144 18.4996 11.2389 17.2042 14.5 17.2042C17.7611 17.2042 20.8886 18.4996 23.1945 20.8055C25.2395 22.8506 26.4898 25.5418 26.7465 28.3993C26.801 29.0055 27.2893 29.5 27.8979 29.5Z" fill="#CC3F41"/>
<rect x="1" y="3.12866" width="2.14" height="11.6201" rx="1.07" transform="rotate(-25 1 3.12866)" fill="#CC3F41"/>
<rect x="13.8057" width="2.14" height="11.6201" rx="1.07" fill="#CC3F41"/>
<rect x="26.5835" y="1.84888" width="2.14176" height="11.6201" rx="1.07088" transform="rotate(25 26.5835 1.84888)" fill="#CC3F41"/>
</svg>
