<svg width="115" height="38" viewBox="0 0 115 38" fill="none" xmlns="http://www.w3.org/2000/svg">
<path d="M0.161297 11.438V8.6H11.6013V11.438H7.4433V24H4.2973V11.438H0.161297ZM10.2514 18.94C10.2514 17.884 10.4934 16.96 10.9774 16.168C11.4761 15.376 12.1434 14.76 12.9794 14.32C13.8301 13.88 14.7907 13.66 15.8614 13.66C16.9321 13.66 17.8854 13.88 18.7214 14.32C19.5721 14.76 20.2394 15.376 20.7234 16.168C21.2221 16.96 21.4714 17.884 21.4714 18.94C21.4714 19.9813 21.2221 20.9053 20.7234 21.712C20.2394 22.504 19.5721 23.12 18.7214 23.56C17.8854 24 16.9321 24.22 15.8614 24.22C14.7907 24.22 13.8301 24 12.9794 23.56C12.1434 23.12 11.4761 22.504 10.9774 21.712C10.4934 20.9053 10.2514 19.9813 10.2514 18.94ZM13.1554 18.94C13.1554 19.512 13.2727 20.018 13.5074 20.458C13.7567 20.8833 14.0867 21.2207 14.4974 21.47C14.9081 21.7047 15.3627 21.822 15.8614 21.822C16.3601 21.822 16.8147 21.7047 17.2254 21.47C17.6361 21.2207 17.9587 20.8833 18.1934 20.458C18.4427 20.018 18.5674 19.512 18.5674 18.94C18.5674 18.368 18.4427 17.862 18.1934 17.422C17.9587 16.982 17.6361 16.6447 17.2254 16.41C16.8147 16.1753 16.3601 16.058 15.8614 16.058C15.3627 16.058 14.9081 16.1753 14.4974 16.41C14.0867 16.6447 13.7567 16.982 13.5074 17.422C13.2727 17.862 13.1554 18.368 13.1554 18.94ZM23.5432 6.84H26.2932V24H23.5432V6.84ZM30.0112 13.88H33.4212L29.0652 18.06L33.8612 24H30.4732L25.6552 18.06L30.0112 13.88ZM39.8129 24.22C38.7129 24.22 37.7522 24 36.9309 23.56C36.1095 23.12 35.4715 22.5113 35.0169 21.734C34.5769 20.942 34.3569 20.0107 34.3569 18.94C34.3569 17.8547 34.5769 16.9233 35.0169 16.146C35.4715 15.354 36.1095 14.7453 36.9309 14.32C37.7522 13.88 38.7202 13.66 39.8349 13.66C40.9495 13.66 41.8955 13.8653 42.6729 14.276C43.4649 14.672 44.0662 15.2587 44.4769 16.036C44.8875 16.7987 45.0929 17.7227 45.0929 18.808C45.0929 18.94 45.0855 19.0793 45.0709 19.226C45.0709 19.3727 45.0635 19.49 45.0489 19.578H35.9849V17.818H42.5629L41.7929 18.83C41.8515 18.742 41.9029 18.6247 41.9469 18.478C42.0055 18.3167 42.0349 18.1847 42.0349 18.082C42.0349 17.5833 41.9395 17.158 41.7489 16.806C41.5729 16.454 41.3162 16.1753 40.9789 15.97C40.6415 15.7647 40.2455 15.662 39.7909 15.662C39.2335 15.662 38.7642 15.7867 38.3829 16.036C38.0162 16.2707 37.7302 16.63 37.5249 17.114C37.3342 17.5833 37.2315 18.17 37.2169 18.874C37.2169 19.5487 37.3122 20.1207 37.5029 20.59C37.7082 21.0593 38.0089 21.4187 38.4049 21.668C38.8009 21.9173 39.2775 22.042 39.8349 22.042C40.4655 22.042 41.0009 21.9247 41.4409 21.69C41.8955 21.4407 42.2695 21.074 42.5629 20.59L45.0489 21.36C44.5209 22.3133 43.8169 23.032 42.9369 23.516C42.0715 23.9853 41.0302 24.22 39.8129 24.22ZM53.776 17.84C53.776 17.1653 53.644 16.652 53.38 16.3C53.116 15.948 52.6907 15.772 52.104 15.772C51.708 15.772 51.356 15.86 51.048 16.036C50.74 16.1973 50.5053 16.432 50.344 16.74C50.1827 17.048 50.102 17.4147 50.102 17.84V24H47.242V13.88H50.102V15.42C50.41 14.848 50.8133 14.4153 51.312 14.122C51.8253 13.814 52.4413 13.66 53.16 13.66C54.3627 13.66 55.2573 14.0047 55.844 14.694C56.4307 15.3687 56.724 16.3147 56.724 17.532V24H53.776V17.84ZM58.849 18.94C58.849 17.884 59.091 16.96 59.575 16.168C60.0737 15.376 60.741 14.76 61.577 14.32C62.4277 13.88 63.3884 13.66 64.459 13.66C65.5297 13.66 66.483 13.88 67.319 14.32C68.1697 14.76 68.837 15.376 69.321 16.168C69.8197 16.96 70.069 17.884 70.069 18.94C70.069 19.9813 69.8197 20.9053 69.321 21.712C68.837 22.504 68.1697 23.12 67.319 23.56C66.483 24 65.5297 24.22 64.459 24.22C63.3884 24.22 62.4277 24 61.577 23.56C60.741 23.12 60.0737 22.504 59.575 21.712C59.091 20.9053 58.849 19.9813 58.849 18.94ZM61.753 18.94C61.753 19.512 61.8704 20.018 62.105 20.458C62.3544 20.8833 62.6844 21.2207 63.095 21.47C63.5057 21.7047 63.9604 21.822 64.459 21.822C64.9577 21.822 65.4124 21.7047 65.823 21.47C66.2337 21.2207 66.5564 20.8833 66.791 20.458C67.0404 20.018 67.165 19.512 67.165 18.94C67.165 18.368 67.0404 17.862 66.791 17.422C66.5564 16.982 66.2337 16.6447 65.823 16.41C65.4124 16.1753 64.9577 16.058 64.459 16.058C63.9604 16.058 63.5057 16.1753 63.095 16.41C62.6844 16.6447 62.3544 16.982 62.105 17.422C61.8704 17.862 61.753 18.368 61.753 18.94ZM87.1668 17.532V24H84.3068V17.84C84.3068 17.1507 84.1895 16.6373 83.9548 16.3C83.7202 15.948 83.3388 15.772 82.8108 15.772C82.4588 15.772 82.1508 15.8527 81.8868 16.014C81.6228 16.1607 81.4175 16.3953 81.2708 16.718C81.1242 17.026 81.0508 17.4 81.0508 17.84V24H78.2128V17.84C78.2128 17.1507 78.0955 16.6373 77.8608 16.3C77.6262 15.948 77.2448 15.772 76.7168 15.772C76.3648 15.772 76.0568 15.8527 75.7928 16.014C75.5288 16.1607 75.3235 16.3953 75.1768 16.718C75.0302 17.026 74.9568 17.4 74.9568 17.84V24H72.2068V13.88H74.9568V15.376C75.2502 14.8187 75.6388 14.3933 76.1228 14.1C76.6068 13.8067 77.1862 13.66 77.8608 13.66C78.6088 13.66 79.2248 13.8067 79.7088 14.1C80.1928 14.3933 80.5448 14.826 80.7648 15.398C81.1315 14.826 81.5788 14.3933 82.1068 14.1C82.6495 13.8067 83.2655 13.66 83.9548 13.66C84.7028 13.66 85.3115 13.814 85.7808 14.122C86.2502 14.4153 86.5948 14.8553 86.8148 15.442C87.0495 16.014 87.1668 16.7107 87.1668 17.532ZM89.8424 9.964C89.8424 9.49467 90.0111 9.11333 90.3484 8.82C90.6857 8.512 91.0891 8.358 91.5584 8.358C92.0277 8.358 92.4237 8.512 92.7464 8.82C93.0837 9.11333 93.2524 9.49467 93.2524 9.964C93.2524 10.4187 93.0837 10.8 92.7464 11.108C92.4237 11.416 92.0277 11.57 91.5584 11.57C91.0891 11.57 90.6857 11.416 90.3484 11.108C90.0111 10.8 89.8424 10.4187 89.8424 9.964ZM90.1504 13.88H92.9224V24H90.1504V13.88ZM98.1031 18.94C98.1031 19.5267 98.2351 20.04 98.4991 20.48C98.7631 20.92 99.1151 21.2647 99.5551 21.514C100.01 21.7633 100.508 21.888 101.051 21.888C101.491 21.888 101.916 21.822 102.327 21.69C102.738 21.5433 103.104 21.3527 103.427 21.118C103.764 20.8687 104.021 20.5827 104.197 20.26V23.186C103.845 23.5087 103.383 23.7653 102.811 23.956C102.254 24.132 101.601 24.22 100.853 24.22C99.7824 24.22 98.8144 24 97.9491 23.56C97.0984 23.12 96.4237 22.504 95.9251 21.712C95.4411 20.9053 95.1991 19.9813 95.1991 18.94C95.1991 17.884 95.4411 16.96 95.9251 16.168C96.4237 15.376 97.0984 14.76 97.9491 14.32C98.8144 13.88 99.7824 13.66 100.853 13.66C101.601 13.66 102.254 13.7553 102.811 13.946C103.383 14.122 103.845 14.364 104.197 14.672V17.598C104.021 17.2753 103.757 16.9967 103.405 16.762C103.068 16.5127 102.694 16.322 102.283 16.19C101.872 16.058 101.462 15.992 101.051 15.992C100.508 15.992 100.01 16.124 99.5551 16.388C99.1151 16.6373 98.7631 16.982 98.4991 17.422C98.2351 17.862 98.1031 18.368 98.1031 18.94ZM107.217 20.502C107.642 20.898 108.038 21.2207 108.405 21.47C108.771 21.7047 109.116 21.8807 109.439 21.998C109.776 22.1153 110.091 22.174 110.385 22.174C110.766 22.174 111.059 22.0933 111.265 21.932C111.47 21.756 111.573 21.5213 111.573 21.228C111.573 20.964 111.485 20.744 111.309 20.568C111.147 20.3773 110.905 20.2087 110.583 20.062C110.26 19.9153 109.849 19.7613 109.351 19.6C108.881 19.424 108.427 19.2187 107.987 18.984C107.547 18.7347 107.18 18.412 106.887 18.016C106.608 17.6053 106.469 17.0847 106.469 16.454C106.469 15.8527 106.63 15.3467 106.953 14.936C107.275 14.5107 107.708 14.1953 108.251 13.99C108.808 13.77 109.424 13.66 110.099 13.66C110.671 13.66 111.206 13.7333 111.705 13.88C112.203 14.0267 112.665 14.2247 113.091 14.474C113.516 14.7087 113.89 14.9873 114.213 15.31L112.959 17.07C112.592 16.674 112.152 16.3513 111.639 16.102C111.14 15.8527 110.649 15.728 110.165 15.728C109.842 15.728 109.585 15.794 109.395 15.926C109.219 16.0433 109.131 16.2267 109.131 16.476C109.131 16.696 109.219 16.894 109.395 17.07C109.585 17.2313 109.849 17.378 110.187 17.51C110.539 17.642 110.935 17.8033 111.375 17.994C111.917 18.1993 112.416 18.434 112.871 18.698C113.34 18.9473 113.714 19.2627 113.993 19.644C114.271 20.0253 114.411 20.524 114.411 21.14C114.411 22.152 114.081 22.944 113.421 23.516C112.761 24.0733 111.851 24.352 110.693 24.352C109.974 24.352 109.314 24.2567 108.713 24.066C108.126 23.8753 107.591 23.626 107.107 23.318C106.637 22.9953 106.212 22.6507 105.831 22.284L107.217 20.502Z" fill="url(#paint0_linear_27_7744)"/>
<rect y="34" width="94.1739" height="4" rx="2" fill="#FDBC6D"/>
<rect x="99.1304" y="34" width="14.8696" height="4" rx="2" fill="#FDBC6D"/>
<defs>
<linearGradient id="paint0_linear_27_7744" x1="0" y1="16" x2="115" y2="16" gradientUnits="userSpaceOnUse">
<stop stop-color="#FFBF6F"/>
<stop offset="0.5" stop-color="#FDCD7F"/>
<stop offset="0.75" stop-color="#FDBC6D"/>
<stop offset="1" stop-color="#FFD188"/>
</linearGradient>
</defs>
</svg>
