<svg width="25" height="37" viewBox="0 0 25 37" fill="none" xmlns="http://www.w3.org/2000/svg">
<path d="M23.3435 24.6842C23.8528 24.6842 24.2694 24.2707 24.2307 23.7628C24.0114 20.882 22.7693 18.1621 20.7121 16.1049C18.4367 13.8296 15.3507 12.5513 12.1328 12.5513C8.91499 12.5513 5.82894 13.8296 3.55358 16.1049C1.49638 18.1621 0.254221 20.882 0.0349428 23.7628C-0.00371117 24.2707 0.412805 24.6842 0.922102 24.6842C1.4314 24.6842 1.83997 24.2704 1.88554 23.7631C2.10036 21.3721 3.14653 19.1202 4.85772 17.409C6.7872 15.4796 9.40413 14.3956 12.1328 14.3956C14.8615 14.3956 17.4785 15.4796 19.4079 17.409C21.1191 19.1202 22.1653 21.3721 22.3801 23.7631C22.4257 24.2704 22.8343 24.6842 23.3435 24.6842Z" fill="#CC3F41"/>
<rect x="0.83667" y="2.61792" width="1.79065" height="9.7231" rx="0.895323" transform="rotate(-25 0.83667 2.61792)" fill="#CC3F41"/>
<rect x="11.5518" width="1.79065" height="9.7231" rx="0.895323" fill="#CC3F41"/>
<rect x="22.2437" y="1.547" width="1.79212" height="9.7231" rx="0.89606" transform="rotate(25 22.2437 1.547)" fill="#CC3F41"/>
</svg>
